<?xml version="1.0" encoding="UTF-8"?>
<svg xmlns="http://www.w3.org/2000/svg" viewBox="0 0 512 512" width="512" height="512" role="img" aria-label="Suavius Atelier">
  <title>Suavius Atelier</title>
  <rect width="512" height="512" fill="#f5f0e8"/>
  <g transform="translate(39.46000000000001, 370.66)" fill="#b87333">
    <path d="M49.680-181.440Q49.680-166.320 57.060-155.700Q64.440-145.080 76.140-137.160Q87.840-129.240 100.800-121.680Q114.120-114.120 126.360-105.660Q138.600-97.200 146.700-85.500Q154.800-73.800 154.800-56.520Q154.800-39.960 146.700-26.100Q138.600-12.240 122.400-3.960Q106.200 4.320 81.720 4.320Q73.800 4.320 66.060 3.240Q58.320 2.160 50.220-0.540Q42.120-3.240 32.760-7.920Q30.960-9 30.420-10.620Q29.880-12.240 29.520-14.760L24.120-61.560Q23.760-63.360 25.740-63.540Q27.720-63.720 28.080-62.280Q29.520-51.480 33.840-40.680Q38.160-29.880 45.540-20.880Q52.920-11.880 63.900-6.300Q74.880-0.720 89.640-0.720Q100.800-0.720 111.240-4.860Q121.680-9 128.340-18.360Q135-27.720 135-43.920Q135-61.560 127.260-73.260Q119.520-84.960 107.640-93.420Q95.760-101.880 82.440-109.440Q69.840-117 57.960-125.280Q46.080-133.560 38.700-144.900Q31.320-156.240 31.320-173.160Q31.320-191.880 40.680-204.300Q50.040-216.720 64.980-222.840Q79.920-228.960 96.120-228.960Q105.480-228.960 115.740-226.980Q126-225 137.160-220.320Q140.040-219.240 141.300-217.620Q142.560-216 142.560-214.200L145.800-176.040Q145.800-174.600 143.820-174.600Q141.840-174.600 141.480-176.040Q140.760-183.960 137.700-192.420Q134.640-200.880 128.700-208.080Q122.760-215.280 113.580-219.780Q104.400-224.280 91.440-224.280Q75.960-224.280 66.780-217.800Q57.600-211.320 53.640-201.600Q49.680-191.880 49.680-181.440 M352.800-103.320L253.800-103.320L257.040-109.800L350.280-109.800L352.800-103.320M431.640-4.320Q433.080-4.320 433.080-2.160Q433.080 0 431.640 0Q421.560 0 410.940-0.720Q400.320-1.440 390.600-1.440Q379.440-1.440 371.340-0.720Q363.240 0 353.520 0Q352.080 0 352.080-2.160Q352.080-4.320 353.520-4.320Q373.680-4.320 378.900-9.720Q384.120-15.120 377.280-30.240L295.920-205.200L302.760-211.320L233.280-44.280Q224.280-22.320 231.840-13.320Q239.400-4.320 263.880-4.320Q265.680-4.320 265.680-2.160Q265.680 0 263.880 0Q253.080 0 244.080-0.720Q235.080-1.440 221.400-1.440Q208.800-1.440 201.060-0.720Q193.320 0 182.520 0Q181.080 0 181.080-2.160Q181.080-4.320 182.520-4.320Q192.240-4.320 199.440-7.920Q206.640-11.520 212.940-20.880Q219.240-30.240 226.440-47.520L301.680-228.600Q302.400-229.680 304.020-229.680Q305.640-229.680 306-228.600L389.520-49.320Q397.800-31.320 404.280-21.420Q410.760-11.520 417.240-7.920Q423.720-4.320 431.640-4.320"/>
  </g>
</svg>
