<?xml version="1.0" standalone="no"?>
<!DOCTYPE svg PUBLIC "-//W3C//DTD SVG 20010904//EN"
 "http://www.w3.org/TR/2001/REC-SVG-20010904/DTD/svg10.dtd">
<svg version="1.0" xmlns="http://www.w3.org/2000/svg"
 width="1125.000000pt" height="1024.000000pt" viewBox="0 0 1125.000000 1024.000000"
 preserveAspectRatio="xMidYMid meet">
<metadata>
Created by potrace 1.16, written by Peter Selinger 2001-2019
</metadata>
<g transform="translate(0.000000,1024.000000) scale(0.100000,-0.100000)"
fill="#b87333" stroke="none">
<path d="M3150 10230 c-280 -22 -610 -80 -828 -146 -302 -92 -625 -245 -867
-412 -332 -229 -621 -556 -790 -893 -125 -247 -200 -488 -241 -774 -23 -158
-24 -513 -1 -670 78 -549 294 -983 676 -1365 404 -403 932 -687 1871 -1005
619 -210 1079 -373 1303 -461 71 -28 97 -43 94 -54 -7 -26 -1352 -3168 -1359
-3176 -6 -6 -237 59 -343 96 -211 75 -475 229 -665 388 -380 319 -668 852
-757 1401 l-18 111 -611 0 -610 0 18 -142 c46 -363 130 -702 250 -1003 267
-672 755 -1255 1346 -1608 515 -307 1064 -470 1713 -508 308 -18 645 7 970 72
960 192 1822 825 2233 1638 192 380 295 797 297 1192 l0 159 897 0 897 0 92
-213 c329 -766 915 -2132 1052 -2453 89 -209 166 -386 170 -392 6 -9 164 -12
659 -10 l651 3 -35 80 c-19 44 -91 208 -159 365 -67 157 -250 578 -405 935
-759 1748 -3437 7991 -3700 8625 -29 69 -63 147 -77 174 l-25 50 -14 -25 c-7
-14 -178 -412 -379 -885 -202 -472 -580 -1356 -840 -1964 -391 -913 -560
-1309 -741 -1737 l-14 -31 -82 35 c-167 70 -593 225 -983 356 -714 241 -987
344 -1240 468 -480 235 -742 488 -854 824 -48 146 -63 236 -63 380 1 520 287
940 807 1186 175 82 339 133 550 170 144 26 516 36 676 20 326 -34 648 -138
934 -302 181 -104 287 -190 511 -416 l211 -213 148 342 c81 189 197 459 258
600 l110 258 -64 58 c-348 319 -692 523 -1140 677 -375 129 -736 191 -1164
199 -115 3 -262 1 -325 -4z m700 -355 c570 -77 1084 -279 1497 -588 46 -34 83
-68 83 -76 0 -10 -206 -501 -213 -507 -1 -1 -45 34 -97 78 -363 304 -810 501
-1305 575 -93 13 -185 17 -410 18 -325 0 -427 -11 -660 -70 -772 -196 -1273
-670 -1417 -1338 -18 -84 -22 -136 -22 -292 -1 -211 8 -279 59 -450 116 -385
363 -682 771 -927 142 -86 433 -229 604 -297 184 -74 588 -217 1045 -371 814
-274 1185 -429 1536 -642 223 -135 429 -303 572 -467 83 -94 186 -230 187
-243 0 -5 -164 -8 -365 -8 l-366 0 -82 67 c-177 144 -437 290 -777 437 -232
99 -415 167 -911 336 -756 258 -862 296 -1124 405 -692 288 -1097 585 -1387
1017 -164 244 -285 576 -317 870 -14 124 -14 371 0 496 63 583 349 1087 814
1432 421 313 943 503 1535 560 140 13 613 4 750 -15z m3179 -913 c361 -844
987 -2307 1078 -2517 36 -82 123 -287 195 -455 71 -168 179 -420 240 -560 60
-140 311 -725 558 -1300 247 -575 508 -1182 580 -1350 73 -168 199 -460 280
-650 174 -407 450 -1045 510 -1180 68 -154 260 -600 260 -605 0 -3 -128 -5
-284 -5 l-284 0 -378 883 c-207 485 -485 1132 -617 1437 -132 305 -257 599
-279 652 l-40 98 -422 2 c-231 2 -1132 3 -2000 3 l-1579 0 -12 -35 c-12 -33
-103 -247 -635 -1495 -400 -936 -430 -1008 -430 -1017 0 -5 17 -6 38 -2 63 11
265 65 285 76 11 5 69 23 131 38 439 111 823 326 1126 630 363 363 560 803
577 1288 l6 172 281 -2 281 -3 -2 -145 c-3 -248 -41 -463 -124 -715 -175 -527
-547 -1006 -1034 -1332 -413 -275 -812 -427 -1320 -503 -180 -27 -579 -38
-780 -21 -395 33 -719 112 -1078 263 -193 81 -471 248 -677 406 -199 154 -472
458 -626 699 -68 106 -217 391 -273 523 -72 168 -191 591 -191 679 0 21 1 21
279 21 l279 0 20 -78 c67 -251 109 -365 197 -542 225 -452 527 -792 921 -1038
210 -131 485 -242 769 -310 140 -34 356 -66 366 -54 7 8 1 -7 591 1372 779
1819 859 2005 867 2013 26 26 323 -169 465 -303 l73 -70 1703 0 c1358 0 1701
3 1697 13 -3 6 -29 66 -58 132 -205 474 -317 733 -614 1430 -186 435 -458
1071 -605 1415 -147 344 -312 729 -365 855 -54 127 -104 246 -112 265 l-15 34
-13 -29 c-61 -143 -905 -2119 -1037 -2430 -94 -220 -173 -403 -177 -407 -4 -4
-40 13 -81 39 -41 25 -141 83 -222 128 l-146 81 45 105 c25 57 186 437 360
844 173 407 438 1026 588 1375 150 349 337 786 415 970 78 184 169 399 203
478 33 78 63 142 66 142 3 0 84 -183 180 -408z m39 -2254 c115 -271 328 -770
472 -1108 288 -675 339 -794 460 -1075 45 -104 89 -205 96 -222 l14 -33 -814
0 -814 0 -32 57 c-101 180 -281 406 -454 570 l-97 93 55 127 c30 71 124 292
209 493 276 648 558 1312 604 1420 25 58 52 120 59 138 8 17 18 32 23 32 4 0
103 -222 219 -492z m-1481 -3810 c-4 -121 -11 -199 -26 -259 -112 -484 -440
-889 -923 -1144 -107 -56 -277 -129 -284 -122 -2 2 92 228 209 503 118 274
280 655 362 847 l148 347 260 0 260 0 -6 -172z"/>
</g>
</svg>
