<?xml version="1.0" standalone="no"?>
<!DOCTYPE svg PUBLIC "-//W3C//DTD SVG 20010904//EN"
 "http://www.w3.org/TR/2001/REC-SVG-20010904/DTD/svg10.dtd">
<svg version="1.0" xmlns="http://www.w3.org/2000/svg"
 width="1207.000000pt" height="1333.000000pt" viewBox="0 0 1207.000000 1333.000000"
 preserveAspectRatio="xMidYMid meet">
<metadata>
Created by potrace 1.16, written by Peter Selinger 2001-2019
</metadata>
<g transform="translate(0.000000,1333.000000) scale(0.100000,-0.100000)"
fill="#b87333" stroke="none">
<path d="M3560 13320 c-280 -22 -610 -80 -828 -146 -302 -92 -625 -245 -867
-412 -332 -229 -621 -556 -790 -893 -125 -247 -200 -488 -241 -774 -23 -158
-24 -513 -1 -670 78 -549 294 -983 676 -1365 404 -403 932 -687 1871 -1005
619 -210 1079 -373 1303 -461 71 -28 97 -43 94 -54 -7 -26 -1352 -3168 -1359
-3176 -6 -6 -237 59 -343 96 -211 75 -475 229 -665 388 -380 319 -668 852
-757 1401 l-18 111 -611 0 -610 0 18 -142 c46 -363 130 -702 250 -1003 267
-672 755 -1255 1346 -1608 515 -307 1064 -470 1713 -508 308 -18 645 7 970 72
960 192 1822 825 2233 1638 192 380 295 797 297 1192 l0 159 897 0 897 0 92
-212 c329 -767 915 -2133 1052 -2454 89 -209 166 -386 170 -392 6 -9 164 -12
659 -10 l651 3 -35 80 c-19 44 -91 208 -159 365 -67 157 -250 578 -405 935
-759 1748 -3437 7991 -3700 8625 -29 69 -63 147 -77 174 l-25 50 -14 -25 c-7
-14 -178 -412 -379 -885 -202 -472 -580 -1356 -840 -1964 -391 -913 -560
-1309 -741 -1737 l-14 -31 -82 35 c-167 70 -593 225 -983 356 -714 241 -987
344 -1240 468 -480 235 -742 488 -854 824 -48 146 -63 236 -63 380 1 520 287
940 807 1186 175 82 339 133 550 170 144 26 516 36 676 20 326 -34 648 -138
934 -302 181 -104 287 -190 511 -416 l211 -213 148 342 c81 189 197 459 258
600 l110 258 -64 58 c-348 319 -692 523 -1140 677 -375 129 -736 191 -1164
199 -115 3 -262 1 -325 -4z m700 -355 c570 -77 1084 -279 1497 -588 46 -34 83
-68 83 -76 0 -10 -206 -501 -213 -507 -1 -1 -45 34 -97 78 -363 304 -810 501
-1305 575 -93 13 -185 17 -410 18 -325 0 -427 -11 -660 -70 -772 -196 -1273
-670 -1417 -1338 -18 -84 -22 -136 -22 -292 -1 -211 8 -279 59 -450 116 -385
363 -682 771 -927 142 -86 433 -229 604 -297 184 -74 588 -217 1045 -371 814
-274 1185 -429 1536 -642 223 -135 429 -303 572 -467 83 -94 186 -230 187
-243 0 -5 -164 -8 -365 -8 l-366 0 -82 67 c-177 144 -437 290 -777 437 -232
99 -415 167 -911 336 -756 258 -862 296 -1124 405 -692 288 -1097 585 -1387
1017 -164 244 -285 576 -317 870 -14 124 -14 371 0 496 63 583 349 1087 814
1432 421 313 943 503 1535 560 140 13 613 4 750 -15z m3179 -913 c361 -844
987 -2307 1078 -2517 36 -82 123 -287 195 -455 71 -168 179 -420 240 -560 60
-140 311 -725 558 -1300 247 -575 508 -1182 580 -1350 73 -168 199 -460 280
-650 174 -407 450 -1045 510 -1180 68 -154 260 -600 260 -605 0 -3 -128 -5
-284 -5 l-284 0 -378 883 c-207 485 -485 1132 -617 1437 -132 305 -257 599
-279 652 l-40 98 -422 2 c-231 2 -1132 3 -2000 3 l-1579 0 -12 -35 c-12 -33
-109 -262 -635 -1495 -402 -942 -433 -1015 -428 -1020 9 -10 280 55 322 77 10
6 68 23 130 38 439 111 823 326 1126 630 363 363 560 803 577 1288 l6 172 281
-2 281 -3 -2 -145 c-3 -248 -41 -463 -124 -715 -175 -527 -547 -1006 -1034
-1332 -413 -275 -812 -427 -1320 -503 -180 -27 -579 -38 -780 -21 -395 33
-719 112 -1078 263 -193 81 -471 248 -677 406 -199 154 -472 458 -626 699 -68
106 -217 391 -273 523 -72 168 -191 591 -191 679 0 21 1 21 279 21 l279 0 20
-77 c67 -252 109 -366 197 -543 225 -452 527 -792 921 -1038 210 -131 485
-242 769 -310 140 -34 356 -66 366 -54 7 8 1 -7 591 1372 779 1819 859 2005
867 2013 26 26 323 -169 465 -303 l73 -70 1703 0 c1358 0 1701 3 1697 13 -3 6
-29 66 -58 132 -205 474 -317 733 -614 1430 -186 435 -458 1071 -605 1415
-147 344 -312 729 -365 855 -54 127 -104 246 -112 265 l-15 34 -13 -29 c-61
-143 -905 -2119 -1037 -2430 -94 -220 -173 -403 -177 -407 -4 -4 -40 13 -81
39 -41 25 -141 83 -222 128 l-146 81 45 105 c25 57 186 437 360 844 173 407
438 1026 588 1375 150 349 337 786 415 970 78 184 169 399 203 478 33 78 63
142 66 142 3 0 84 -183 180 -408z m39 -2254 c115 -271 328 -770 472 -1108 288
-675 339 -794 460 -1075 45 -104 89 -205 96 -222 l14 -33 -814 0 -814 0 -32
58 c-101 179 -281 405 -454 569 l-97 93 55 127 c30 71 124 292 209 493 276
648 558 1312 604 1420 25 58 52 120 59 138 8 17 18 32 23 32 4 0 103 -222 219
-492z m-1481 -3810 c-4 -121 -11 -199 -26 -259 -112 -484 -440 -889 -923
-1144 -107 -56 -277 -129 -284 -122 -2 2 92 228 209 503 118 274 280 655 362
847 l148 347 260 0 260 0 -6 -172z"/>
<path d="M8037 862 c-16 -15 -53 -17 -386 -20 -332 -2 -371 -1 -385 14 -10 9
-19 15 -21 12 -4 -3 -25 -195 -25 -224 0 -30 16 -12 28 30 13 50 51 100 93
121 40 21 197 20 227 -1 l22 -15 0 -348 c0 -278 -3 -351 -14 -366 -10 -13 -30
-20 -75 -23 -33 -2 -61 -8 -61 -13 0 -5 90 -9 201 -9 131 0 198 3 194 10 -3 6
-28 10 -56 10 -36 0 -54 5 -69 20 -19 19 -20 33 -20 365 0 415 -10 385 131
385 138 0 178 -26 200 -130 6 -27 14 -50 18 -50 7 0 23 241 17 247 -1 2 -10
-5 -19 -15z"/>
<path d="M192 836 c-110 -36 -168 -109 -160 -203 7 -85 57 -135 226 -227 50
-26 106 -62 126 -78 110 -91 97 -255 -23 -288 -56 -16 -142 -12 -186 9 -54 24
-120 101 -140 162 -16 48 -42 70 -32 26 3 -12 9 -57 13 -101 l7 -78 41 -19
c143 -63 341 -41 430 47 82 83 85 191 6 270 -22 23 -93 70 -156 105 -127 70
-186 115 -209 160 -34 64 -8 149 57 190 27 16 46 19 104 17 98 -4 141 -33 186
-125 37 -77 43 -69 31 42 l-8 70 -40 14 c-58 20 -220 24 -273 7z"/>
<path d="M1990 533 c-221 -458 -233 -477 -316 -490 -81 -13 -21 -23 141 -23
96 0 175 4 175 9 0 5 -25 11 -55 13 -65 6 -95 28 -95 72 0 17 25 83 57 149
l57 117 180 -2 181 -3 72 -135 c92 -170 93 -200 12 -200 -21 0 -41 -4 -44 -10
-4 -7 55 -10 170 -10 163 0 211 8 134 24 -17 3 -46 21 -63 39 -17 19 -121 199
-231 400 -110 202 -204 367 -210 367 -6 0 -80 -143 -165 -317z m220 36 c45
-83 80 -153 77 -155 -2 -3 -75 -3 -161 -2 l-156 3 74 153 c41 83 77 152 80
152 2 0 41 -68 86 -151z"/>
<path d="M5412 836 c-110 -36 -168 -109 -160 -203 7 -85 57 -135 226 -227 50
-26 106 -62 126 -78 110 -91 97 -255 -23 -288 -56 -16 -142 -12 -186 9 -54 24
-120 101 -140 162 -16 48 -42 70 -32 26 3 -12 9 -57 13 -101 l7 -78 41 -19
c143 -63 341 -41 430 47 82 83 85 191 6 270 -22 23 -93 70 -156 105 -127 70
-186 115 -209 160 -34 64 -8 149 57 190 27 16 46 19 104 17 98 -4 141 -33 186
-125 37 -77 43 -69 31 42 l-8 70 -40 14 c-58 20 -220 24 -273 7z"/>
<path d="M6560 533 c-221 -458 -233 -477 -316 -490 -81 -13 -21 -23 141 -23
96 0 175 4 175 9 0 5 -25 11 -55 13 -65 6 -95 28 -95 72 0 17 25 83 57 149
l57 117 180 -2 181 -3 72 -135 c92 -170 93 -200 12 -200 -21 0 -41 -4 -44 -10
-4 -7 55 -10 170 -10 163 0 211 8 134 24 -17 3 -46 21 -63 39 -17 19 -121 199
-231 400 -110 202 -204 367 -210 367 -6 0 -80 -143 -165 -317z m220 36 c45
-83 80 -153 77 -155 -2 -3 -75 -3 -161 -2 l-156 3 74 153 c41 83 77 152 80
152 2 0 41 -68 86 -151z"/>
<path d="M680 831 c0 -5 23 -11 52 -13 34 -4 56 -12 65 -24 10 -14 13 -76 13
-269 0 -196 3 -263 15 -303 33 -108 119 -179 256 -208 186 -40 359 27 425 163
l29 58 3 250 c2 152 7 261 14 278 12 30 54 57 88 57 11 0 20 5 20 10 0 6 -55
10 -145 10 -90 0 -145 -4 -145 -10 0 -5 13 -10 30 -10 19 0 42 -11 62 -29 l33
-29 0 -264 c0 -246 -1 -266 -21 -308 -23 -49 -64 -94 -105 -116 -46 -24 -148
-35 -219 -23 -119 18 -205 97 -229 209 -17 77 -15 511 2 534 9 12 31 20 65 24
29 2 52 8 52 13 0 5 -81 9 -180 9 -99 0 -180 -4 -180 -9z"/>
<path d="M2580 831 c0 -5 14 -11 31 -15 17 -3 43 -19 57 -35 15 -15 114 -193
220 -395 136 -257 199 -366 210 -366 12 0 62 99 182 362 106 231 176 373 196
394 21 23 43 35 72 40 85 13 38 24 -108 24 -93 0 -150 -4 -150 -10 0 -5 17
-10 38 -10 45 0 82 -23 82 -52 0 -17 -209 -488 -267 -602 l-15 -29 -125 239
c-69 132 -144 276 -167 322 l-41 84 24 19 c13 10 36 19 52 19 16 0 29 5 29 10
0 6 -60 10 -160 10 -88 0 -160 -4 -160 -9z"/>
<path d="M3650 831 c0 -5 23 -11 52 -13 34 -4 56 -12 65 -24 10 -14 13 -92 13
-366 0 -335 -1 -349 -20 -368 -14 -14 -33 -20 -65 -20 -25 0 -45 -4 -45 -10 0
-6 67 -10 180 -10 113 0 180 4 180 10 0 6 -20 10 -45 10 -32 0 -51 6 -65 20
-19 19 -20 33 -20 360 0 229 4 347 11 364 12 26 35 36 87 36 17 0 32 5 32 10
0 6 -67 10 -180 10 -99 0 -180 -4 -180 -9z"/>
<path d="M4120 831 c0 -5 23 -11 52 -13 34 -4 56 -12 65 -24 10 -14 13 -76 13
-269 0 -196 3 -263 15 -303 33 -108 119 -179 256 -208 186 -40 359 27 425 163
l29 58 3 250 c2 152 7 261 14 278 12 30 54 57 88 57 11 0 20 5 20 10 0 6 -55
10 -145 10 -90 0 -145 -4 -145 -10 0 -5 13 -10 30 -10 19 0 42 -11 62 -29 l33
-29 0 -264 c0 -246 -1 -266 -21 -308 -23 -49 -64 -94 -105 -116 -46 -24 -148
-35 -219 -23 -119 18 -205 97 -229 209 -17 77 -15 511 2 534 9 12 31 20 65 24
29 2 52 8 52 13 0 5 -81 9 -180 9 -99 0 -180 -4 -180 -9z"/>
<path d="M8180 831 c0 -5 22 -11 50 -13 85 -8 80 16 80 -389 l0 -358 -22 -15
c-12 -9 -39 -16 -60 -16 -20 0 -40 -4 -43 -10 -4 -7 105 -10 319 -10 179 0
327 3 329 8 10 17 18 194 9 188 -6 -3 -13 -19 -17 -34 -8 -39 -62 -102 -101
-118 -41 -17 -242 -19 -278 -3 -13 6 -27 21 -30 33 -3 11 -6 92 -6 179 l0 157
115 0 c154 0 205 -22 205 -89 0 -12 5 -21 10 -21 6 0 10 45 10 115 0 70 -4
115 -10 115 -5 0 -10 -6 -10 -14 0 -8 -11 -28 -24 -43 -24 -28 -25 -28 -160
-31 l-136 -4 0 150 c0 197 -1 195 139 200 152 6 219 -27 237 -117 4 -17 10
-31 15 -31 10 0 12 123 3 158 l-6 22 -309 0 c-170 0 -309 -4 -309 -9z"/>
<path d="M8980 831 c0 -5 23 -11 52 -13 34 -4 56 -12 65 -24 10 -14 13 -92 13
-366 0 -335 -1 -349 -20 -368 -14 -14 -33 -20 -65 -20 -25 0 -45 -4 -45 -10 0
-16 709 -13 715 3 11 32 20 187 11 184 -5 -2 -13 -16 -17 -31 -12 -44 -58 -97
-103 -117 -34 -15 -66 -19 -188 -19 -135 0 -150 2 -168 20 -19 19 -20 33 -20
363 0 270 3 347 13 361 9 12 31 20 65 24 29 2 52 8 52 13 0 5 -81 9 -180 9
-99 0 -180 -4 -180 -9z"/>
<path d="M9800 831 c0 -5 23 -11 52 -13 34 -4 56 -12 65 -24 10 -14 13 -92 13
-366 0 -335 -1 -349 -20 -368 -14 -14 -33 -20 -65 -20 -25 0 -45 -4 -45 -10 0
-6 67 -10 180 -10 113 0 180 4 180 10 0 6 -20 10 -45 10 -32 0 -51 6 -65 20
-19 19 -20 33 -20 360 0 229 4 347 11 364 12 26 35 36 87 36 17 0 32 5 32 10
0 6 -67 10 -180 10 -99 0 -180 -4 -180 -9z"/>
<path d="M10290 831 c0 -5 22 -11 50 -13 85 -8 80 16 80 -389 l0 -358 -22 -15
c-12 -9 -39 -16 -60 -16 -20 0 -40 -4 -43 -10 -4 -7 105 -10 319 -10 179 0
327 3 329 8 10 17 18 194 9 188 -6 -3 -13 -19 -17 -34 -8 -39 -62 -102 -101
-118 -41 -17 -242 -19 -278 -3 -13 6 -27 21 -30 33 -3 11 -6 92 -6 179 l0 157
115 0 c154 0 205 -22 205 -89 0 -12 5 -21 10 -21 6 0 10 45 10 115 0 70 -4
115 -10 115 -5 0 -10 -6 -10 -14 0 -8 -11 -28 -24 -43 -24 -28 -25 -28 -160
-31 l-136 -4 0 150 c0 197 -1 195 139 200 152 6 219 -27 237 -117 4 -17 10
-31 15 -31 10 0 12 123 3 158 l-6 22 -309 0 c-170 0 -309 -4 -309 -9z"/>
<path d="M11110 832 c0 -5 21 -12 46 -15 82 -9 79 8 79 -388 l0 -351 -24 -19
c-14 -11 -39 -19 -62 -19 -21 0 -41 -4 -44 -10 -4 -7 57 -10 174 -10 114 0
181 4 181 10 0 6 -19 10 -43 10 -80 0 -82 4 -85 204 l-4 176 80 0 80 0 95
-117 c88 -109 204 -232 252 -268 24 -17 235 -22 235 -5 0 6 -12 10 -27 10 -81
0 -203 93 -357 272 -98 114 -120 148 -97 148 5 0 33 18 61 41 121 96 121 241
0 309 -44 25 -50 25 -292 28 -149 2 -248 0 -248 -6z m447 -35 c17 -9 42 -31
55 -49 19 -28 23 -45 23 -113 0 -68 -4 -85 -23 -113 -38 -52 -74 -65 -182 -66
l-95 -1 0 163 c0 163 0 164 25 184 21 17 35 20 95 16 39 -3 84 -12 102 -21z"/>
</g>
</svg>
