<?xml version="1.0" encoding="UTF-8"?>
<svg xmlns="http://www.w3.org/2000/svg" viewBox="0 0 1378 178" width="1378" height="178" role="img" aria-label="Suavius Atelier">
  <title>Suavius Atelier</title>
  <g transform="translate(20, 126.88000000000001)" fill="#b87333">
    <path d="M16.560-60.480Q16.560-55.440 19.020-51.900Q21.480-48.360 25.380-45.720Q29.280-43.080 33.600-40.560Q38.040-38.040 42.120-35.220Q46.200-32.400 48.900-28.500Q51.600-24.600 51.600-18.840Q51.600-13.320 48.900-8.700Q46.200-4.080 40.800-1.320Q35.400 1.440 27.240 1.440Q24.600 1.440 22.020 1.080Q19.440 0.720 16.740-0.180Q14.040-1.080 10.920-2.640Q10.320-3 10.140-3.540Q9.960-4.080 9.840-4.920L8.040-20.520Q7.920-21.120 8.580-21.180Q9.240-21.240 9.360-20.760Q9.840-17.160 11.280-13.560Q12.720-9.960 15.180-6.960Q17.640-3.960 21.300-2.100Q24.960-0.240 29.880-0.240Q33.600-0.240 37.080-1.620Q40.560-3 42.780-6.120Q45-9.240 45-14.640Q45-20.520 42.420-24.420Q39.840-28.320 35.880-31.140Q31.920-33.960 27.480-36.480Q23.280-39 19.320-41.760Q15.360-44.520 12.900-48.300Q10.440-52.080 10.440-57.720Q10.440-63.960 13.560-68.100Q16.680-72.240 21.660-74.280Q26.640-76.320 32.040-76.320Q35.160-76.320 38.580-75.660Q42-75 45.720-73.440Q46.680-73.080 47.100-72.540Q47.520-72 47.520-71.400L48.600-58.680Q48.600-58.200 47.940-58.200Q47.280-58.200 47.160-58.680Q46.920-61.320 45.900-64.140Q44.880-66.960 42.900-69.360Q40.920-71.760 37.860-73.260Q34.800-74.760 30.480-74.760Q25.320-74.760 22.260-72.600Q19.200-70.440 17.880-67.200Q16.560-63.960 16.560-60.480 M148.440-27.960L148.440-62.400Q148.440-68.160 145.980-70.860Q143.520-73.560 138.240-73.560Q137.880-73.560 137.880-74.280Q137.880-75 138.240-75Q140.880-75 143.700-74.820Q146.520-74.640 149.880-74.640Q152.640-74.640 155.460-74.820Q158.280-75 160.560-75Q160.800-75 160.800-74.280Q160.800-73.560 160.560-73.560Q155.760-73.560 153.420-70.860Q151.080-68.160 151.080-62.400L151.080-28.080Q151.080-18.600 147.600-12Q144.120-5.400 137.820-1.920Q131.520 1.560 123.120 1.560Q114.240 1.560 107.640-1.980Q101.040-5.520 97.440-11.940Q93.840-18.360 93.840-27L93.840-65.280Q93.840-68.760 93.060-70.500Q92.280-72.240 90-72.900Q87.720-73.560 83.160-73.560Q82.920-73.560 82.920-74.280Q82.920-75 83.160-75Q86.040-75 89.520-74.820Q93-74.640 96.960-74.640Q101.040-74.640 104.580-74.820Q108.120-75 110.760-75Q111.120-75 111.120-74.280Q111.120-73.560 110.760-73.560Q106.200-73.560 103.920-72.840Q101.640-72.120 100.920-70.320Q100.200-68.520 100.200-65.040L100.200-31.200Q100.200-17.040 106.800-9.480Q113.400-1.920 125.280-1.920Q136.320-1.920 142.380-8.880Q148.440-15.840 148.440-27.960 M242.040-34.440L209.040-34.440L210.120-36.600L241.200-36.600L242.040-34.440M268.320-1.440Q268.800-1.440 268.800-0.720Q268.800 0 268.320 0Q264.960 0 261.420-0.240Q257.880-0.480 254.640-0.480Q250.920-0.480 248.220-0.240Q245.520 0 242.280 0Q241.800 0 241.800-0.720Q241.800-1.440 242.280-1.440Q249-1.440 250.740-3.240Q252.480-5.040 250.200-10.080L223.080-68.400L225.360-70.440L202.200-14.760Q199.200-7.440 201.720-4.440Q204.240-1.440 212.400-1.440Q213-1.440 213-0.720Q213 0 212.400 0Q208.800 0 205.800-0.240Q202.800-0.480 198.240-0.480Q194.040-0.480 191.460-0.240Q188.880 0 185.280 0Q184.800 0 184.800-0.720Q184.800-1.440 185.280-1.440Q188.520-1.440 190.920-2.640Q193.320-3.840 195.420-6.960Q197.520-10.080 199.920-15.840L225-76.200Q225.240-76.560 225.780-76.560Q226.320-76.560 226.440-76.200L254.280-16.440Q257.040-10.440 259.200-7.140Q261.360-3.840 263.520-2.640Q265.680-1.440 268.320-1.440 M370.800-75Q371.160-75 371.160-74.280Q371.160-73.560 370.800-73.560Q367.080-73.560 364.260-72Q361.440-70.440 359.280-65.280L332.880-0.120Q332.760 0.360 331.620 0.360Q330.480 0.360 330.240-0.120L300.600-65.040Q298.560-69.720 296.280-71.640Q294-73.560 290.160-73.560Q289.800-73.560 289.800-74.280Q289.800-75 290.160-75Q291.840-75 293.580-74.880Q295.320-74.760 297.060-74.700Q298.800-74.640 300.360-74.640Q303.240-74.640 305.640-74.700Q308.040-74.760 310.020-74.880Q312-75 313.800-75Q314.160-75 314.160-74.280Q314.160-73.560 313.800-73.560Q309.240-73.560 307.320-72.060Q305.400-70.560 307.440-66.240L334.320-6.840L331.080-2.400L356.760-66Q358.440-70.200 356.640-71.880Q354.840-73.560 348.120-73.560Q347.760-73.560 347.760-74.280Q347.760-75 348.120-75Q350.880-75 353.460-74.820Q356.040-74.640 360.120-74.640Q363.600-74.640 365.700-74.820Q367.800-75 370.800-75 M415.080-65.040L415.080-9.720Q415.080-6.240 415.800-4.440Q416.520-2.640 418.860-2.040Q421.200-1.440 425.760-1.440Q426-1.440 426-0.720Q426 0 425.760 0Q422.880 0 419.400-0.120Q415.920-0.240 411.720-0.240Q407.760-0.240 404.220-0.120Q400.680 0 397.800 0Q397.440 0 397.440-0.720Q397.440-1.440 397.800-1.440Q402.360-1.440 404.700-2.040Q407.040-2.640 407.820-4.440Q408.600-6.240 408.600-9.720L408.600-65.280Q408.600-68.760 407.820-70.500Q407.040-72.240 404.700-72.900Q402.360-73.560 397.800-73.560Q397.440-73.560 397.440-74.280Q397.440-75 397.800-75Q400.680-75 404.220-74.820Q407.760-74.640 411.720-74.640Q415.920-74.640 419.460-74.820Q423-75 425.760-75Q426-75 426-74.280Q426-73.560 425.760-73.560Q421.200-73.560 418.920-72.840Q416.640-72.120 415.860-70.320Q415.080-68.520 415.080-65.040 M521.880-27.960L521.880-62.400Q521.880-68.160 519.420-70.860Q516.960-73.560 511.680-73.560Q511.320-73.560 511.320-74.280Q511.320-75 511.680-75Q514.320-75 517.140-74.820Q519.960-74.640 523.320-74.640Q526.080-74.640 528.900-74.820Q531.720-75 534-75Q534.240-75 534.240-74.280Q534.240-73.560 534-73.560Q529.200-73.560 526.860-70.860Q524.520-68.160 524.520-62.400L524.520-28.080Q524.520-18.600 521.040-12Q517.560-5.400 511.260-1.920Q504.960 1.560 496.560 1.560Q487.680 1.560 481.080-1.980Q474.480-5.520 470.880-11.940Q467.280-18.360 467.280-27L467.280-65.280Q467.280-68.760 466.500-70.500Q465.720-72.240 463.440-72.900Q461.160-73.560 456.600-73.560Q456.360-73.560 456.360-74.280Q456.360-75 456.600-75Q459.480-75 462.960-74.820Q466.440-74.640 470.400-74.640Q474.480-74.640 478.020-74.820Q481.560-75 484.200-75Q484.560-75 484.560-74.280Q484.560-73.560 484.200-73.560Q479.640-73.560 477.360-72.840Q475.080-72.120 474.360-70.320Q473.640-68.520 473.640-65.040L473.640-31.200Q473.640-17.040 480.240-9.480Q486.840-1.920 498.720-1.920Q509.760-1.920 515.820-8.880Q521.880-15.840 521.880-27.960 M575.040-60.480Q575.040-55.440 577.500-51.900Q579.960-48.360 583.860-45.720Q587.760-43.080 592.080-40.560Q596.520-38.040 600.600-35.220Q604.680-32.400 607.380-28.500Q610.080-24.600 610.080-18.840Q610.080-13.320 607.380-8.700Q604.680-4.080 599.280-1.320Q593.880 1.440 585.720 1.440Q583.080 1.440 580.500 1.080Q577.920 0.720 575.220-0.180Q572.520-1.080 569.400-2.640Q568.800-3 568.620-3.540Q568.440-4.080 568.320-4.920L566.520-20.520Q566.400-21.120 567.060-21.180Q567.720-21.240 567.840-20.760Q568.320-17.160 569.760-13.560Q571.200-9.960 573.660-6.960Q576.120-3.960 579.780-2.100Q583.440-0.240 588.360-0.240Q592.080-0.240 595.560-1.620Q599.040-3 601.260-6.120Q603.480-9.240 603.480-14.640Q603.480-20.520 600.900-24.420Q598.320-28.320 594.360-31.140Q590.400-33.960 585.960-36.480Q581.760-39 577.800-41.760Q573.840-44.520 571.380-48.300Q568.920-52.080 568.920-57.720Q568.920-63.960 572.040-68.100Q575.160-72.240 580.140-74.280Q585.120-76.320 590.520-76.320Q593.640-76.320 597.060-75.660Q600.480-75 604.200-73.440Q605.160-73.080 605.580-72.540Q606-72 606-71.400L607.080-58.680Q607.080-58.200 606.420-58.200Q605.760-58.200 605.640-58.680Q605.400-61.320 604.380-64.140Q603.360-66.960 601.380-69.360Q599.400-71.760 596.340-73.260Q593.280-74.760 588.960-74.760Q583.800-74.760 580.740-72.600Q577.680-70.440 576.360-67.200Q575.040-63.960 575.040-60.480   M794.640-34.440L761.640-34.440L762.720-36.600L793.800-36.600L794.640-34.440M820.920-1.440Q821.400-1.440 821.400-0.720Q821.400 0 820.920 0Q817.560 0 814.020-0.240Q810.480-0.480 807.240-0.480Q803.520-0.480 800.820-0.240Q798.120 0 794.880 0Q794.400 0 794.400-0.720Q794.400-1.440 794.880-1.440Q801.600-1.440 803.340-3.240Q805.080-5.040 802.800-10.080L775.680-68.400L777.960-70.440L754.800-14.760Q751.800-7.440 754.320-4.440Q756.840-1.440 765-1.440Q765.600-1.440 765.600-0.720Q765.600 0 765 0Q761.400 0 758.400-0.240Q755.400-0.480 750.840-0.480Q746.640-0.480 744.060-0.240Q741.480 0 737.880 0Q737.400 0 737.400-0.720Q737.400-1.440 737.880-1.440Q741.120-1.440 743.520-2.640Q745.920-3.840 748.020-6.960Q750.120-10.080 752.520-15.840L777.600-76.200Q777.840-76.560 778.380-76.560Q778.920-76.560 779.040-76.200L806.880-16.440Q809.640-10.440 811.800-7.140Q813.960-3.840 816.120-2.640Q818.280-1.440 820.920-1.440 M864.600-72.960Q857.040-72.960 853.620-69.360Q850.200-65.760 848.880-56.520Q848.880-56.280 848.160-56.280Q847.440-56.280 847.440-56.520Q847.680-57.960 847.980-60.720Q848.280-63.480 848.520-66.660Q848.760-69.840 848.940-72.780Q849.120-75.720 849.120-77.640Q849.120-78.240 849.840-78.240Q850.560-78.240 850.560-77.640Q850.560-76.440 851.700-75.900Q852.840-75.360 854.340-75.180Q855.840-75 856.920-75Q867.240-74.640 881.040-74.640Q889.560-74.640 894.540-74.820Q899.520-75 904.200-75Q908.160-75 910.380-75.540Q912.600-76.080 913.200-78Q913.320-78.480 913.920-78.480Q914.520-78.480 914.520-78Q914.400-76.200 914.160-73.200Q913.920-70.200 913.800-66.900Q913.680-63.600 913.560-60.780Q913.440-57.960 913.440-56.520Q913.440-56.280 912.720-56.280Q912-56.280 912-56.520Q912-65.760 908.880-69.360Q905.760-72.960 897.480-72.960Q891.840-72.960 889.020-72.540Q886.200-72.120 885.300-70.500Q884.400-68.880 884.400-65.040L884.400-9.720Q884.400-6.240 885.240-4.440Q886.080-2.640 888.660-2.040Q891.240-1.440 896.520-1.440Q896.760-1.440 896.760-0.720Q896.760 0 896.520 0Q893.400 0 889.500-0.120Q885.600-0.240 881.040-0.240Q876.720-0.240 872.820-0.120Q868.920 0 865.680 0Q865.440 0 865.440-0.720Q865.440-1.440 865.680-1.440Q870.840-1.440 873.480-2.040Q876.120-2.640 877.020-4.440Q877.920-6.240 877.920-9.720L877.920-65.280Q877.920-69.120 876.960-70.740Q876-72.360 873.120-72.660Q870.240-72.960 864.600-72.960 M995.280 0L945.720 0Q945.480 0 945.480-0.720Q945.480-1.440 945.720-1.440Q950.280-1.440 952.560-2.040Q954.840-2.640 955.620-4.440Q956.400-6.240 956.400-9.720L956.400-65.280Q956.400-68.760 955.620-70.500Q954.840-72.240 952.560-72.900Q950.280-73.560 945.720-73.560Q945.480-73.560 945.480-74.280Q945.480-75 945.720-75L993.240-75Q994.320-75 994.320-73.920L994.560-59.400Q994.560-59.040 993.900-59.040Q993.240-59.040 993.240-59.400Q993.240-65.640 990-69.180Q986.760-72.720 981.480-72.720L973.200-72.720Q968.760-72.720 966.540-72.120Q964.320-71.520 963.540-69.780Q962.760-68.040 962.760-64.560L962.760-10.200Q962.760-6.840 963.540-5.160Q964.320-3.480 966.540-2.880Q968.760-2.280 973.200-2.280L984.240-2.280Q989.040-2.280 992.520-6.480Q996-10.680 996.840-17.520Q996.840-17.880 997.560-17.820Q998.280-17.760 998.280-17.400Q997.800-14.280 997.500-9.900Q997.200-5.520 997.200-1.800Q997.200 0 995.280 0M988.560-28.200Q988.560-33.600 986.280-35.760Q984-37.920 978.240-37.920L959.760-37.920L959.760-40.200L978.600-40.200Q984.120-40.200 986.280-42.060Q988.440-43.920 988.440-48.480Q988.440-48.720 989.160-48.720Q989.880-48.720 989.880-48.480Q989.880-45 989.820-43.080Q989.760-41.160 989.760-39Q989.760-36.360 989.880-33.780Q990-31.200 990-28.200Q990-27.960 989.280-27.960Q988.560-27.960 988.560-28.200 M1047.360-65.160L1047.360-10.200Q1047.360-6.840 1048.140-5.160Q1048.920-3.480 1051.140-2.880Q1053.360-2.280 1057.680-2.280L1073.040-2.280Q1079.400-2.280 1082.760-6.480Q1086.120-10.680 1087.080-17.520Q1087.080-17.880 1087.740-17.820Q1088.400-17.760 1088.400-17.400Q1088.040-14.280 1087.680-9.900Q1087.320-5.520 1087.320-1.800Q1087.320 0 1085.520 0L1030.320 0Q1030.080 0 1030.080-0.720Q1030.080-1.440 1030.320-1.440Q1034.880-1.440 1037.160-2.040Q1039.440-2.640 1040.220-4.440Q1041-6.240 1041-9.720L1041-65.280Q1041-68.760 1040.220-70.500Q1039.440-72.240 1037.160-72.900Q1034.880-73.560 1030.320-73.560Q1030.080-73.560 1030.080-74.280Q1030.080-75 1030.320-75Q1033.200-75 1036.740-74.820Q1040.280-74.640 1044.120-74.640Q1048.200-74.640 1051.740-74.820Q1055.280-75 1058.040-75Q1058.280-75 1058.280-74.280Q1058.280-73.560 1058.040-73.560Q1053.480-73.560 1051.200-72.900Q1048.920-72.240 1048.140-70.440Q1047.360-68.640 1047.360-65.160 M1134.240-65.040L1134.240-9.720Q1134.240-6.240 1134.960-4.440Q1135.680-2.640 1138.020-2.040Q1140.360-1.440 1144.920-1.440Q1145.160-1.440 1145.160-0.720Q1145.160 0 1144.920 0Q1142.040 0 1138.560-0.120Q1135.080-0.240 1130.880-0.240Q1126.920-0.240 1123.380-0.120Q1119.840 0 1116.960 0Q1116.600 0 1116.600-0.720Q1116.600-1.440 1116.960-1.440Q1121.520-1.440 1123.860-2.040Q1126.200-2.640 1126.980-4.440Q1127.760-6.240 1127.760-9.720L1127.760-65.280Q1127.760-68.760 1126.980-70.500Q1126.200-72.240 1123.860-72.900Q1121.520-73.560 1116.960-73.560Q1116.600-73.560 1116.600-74.280Q1116.600-75 1116.960-75Q1119.840-75 1123.380-74.820Q1126.920-74.640 1130.880-74.640Q1135.080-74.640 1138.620-74.820Q1142.160-75 1144.920-75Q1145.160-75 1145.160-74.280Q1145.160-73.560 1144.920-73.560Q1140.360-73.560 1138.080-72.840Q1135.800-72.120 1135.020-70.320Q1134.240-68.520 1134.240-65.040 M1227.240 0L1177.680 0Q1177.440 0 1177.440-0.720Q1177.440-1.440 1177.680-1.440Q1182.240-1.440 1184.520-2.040Q1186.800-2.640 1187.580-4.440Q1188.360-6.240 1188.360-9.720L1188.360-65.280Q1188.360-68.760 1187.580-70.500Q1186.800-72.240 1184.520-72.900Q1182.240-73.560 1177.680-73.560Q1177.440-73.560 1177.440-74.280Q1177.440-75 1177.680-75L1225.200-75Q1226.280-75 1226.280-73.920L1226.520-59.400Q1226.520-59.040 1225.860-59.040Q1225.200-59.040 1225.200-59.400Q1225.200-65.640 1221.960-69.180Q1218.720-72.720 1213.440-72.720L1205.160-72.720Q1200.720-72.720 1198.500-72.120Q1196.280-71.520 1195.500-69.780Q1194.720-68.040 1194.720-64.560L1194.720-10.200Q1194.720-6.840 1195.500-5.160Q1196.280-3.480 1198.500-2.880Q1200.720-2.280 1205.160-2.280L1216.200-2.280Q1221-2.280 1224.480-6.480Q1227.960-10.680 1228.800-17.520Q1228.800-17.880 1229.520-17.820Q1230.240-17.760 1230.240-17.400Q1229.760-14.280 1229.460-9.900Q1229.160-5.520 1229.160-1.800Q1229.160 0 1227.240 0M1220.520-28.200Q1220.520-33.600 1218.240-35.760Q1215.960-37.920 1210.200-37.920L1191.720-37.920L1191.720-40.200L1210.560-40.200Q1216.080-40.200 1218.240-42.060Q1220.400-43.920 1220.400-48.480Q1220.400-48.720 1221.120-48.720Q1221.840-48.720 1221.840-48.480Q1221.840-45 1221.780-43.080Q1221.720-41.160 1221.720-39Q1221.720-36.360 1221.840-33.780Q1221.960-31.200 1221.960-28.200Q1221.960-27.960 1221.240-27.960Q1220.520-27.960 1220.520-28.200 M1325.160 0Q1323.120 0 1318.440-4.680Q1313.760-9.360 1307.160-18.060Q1300.560-26.760 1292.400-38.640L1298.160-40.440Q1308.480-25.920 1315.680-17.340Q1322.880-8.760 1328.400-5.100Q1333.920-1.440 1339.080-1.440Q1339.440-1.440 1339.440-0.720Q1339.440 0 1339.080 0Q1333.680 0 1330.260 0Q1326.840 0 1325.160 0M1293.840-75.360Q1303.080-75.360 1307.940-70.920Q1312.800-66.480 1312.800-59.400Q1312.800-53.040 1309.080-47.880Q1305.360-42.720 1299.180-39.720Q1293-36.720 1285.560-36.720Q1284.480-36.720 1283.040-36.840Q1281.600-36.960 1280.400-37.080L1280.400-9.720Q1280.400-6.240 1281.120-4.440Q1281.840-2.640 1284.180-2.040Q1286.520-1.440 1291.080-1.440Q1291.440-1.440 1291.440-0.720Q1291.440 0 1291.080 0Q1288.200 0 1284.780-0.120Q1281.360-0.240 1277.160-0.240Q1273.320-0.240 1269.720-0.120Q1266.120 0 1263.240 0Q1263 0 1263-0.720Q1263-1.440 1263.240-1.440Q1267.800-1.440 1270.140-2.040Q1272.480-2.640 1273.320-4.440Q1274.160-6.240 1274.160-9.720L1274.160-65.280Q1274.160-68.760 1273.380-70.500Q1272.600-72.240 1270.320-72.900Q1268.040-73.560 1263.480-73.560Q1263.120-73.560 1263.120-74.280Q1263.120-75 1263.480-75Q1266.240-75 1269.780-74.820Q1273.320-74.640 1277.160-74.640Q1280.880-74.640 1285.800-75Q1290.720-75.360 1293.840-75.360M1306.080-56.160Q1306.080-62.640 1303.980-66.480Q1301.880-70.320 1297.980-72.060Q1294.080-73.800 1288.560-73.800Q1284.240-73.800 1282.320-72.240Q1280.400-70.680 1280.400-65.040L1280.400-39.840Q1282.080-39.720 1284.060-39.600Q1286.040-39.480 1287.600-39.480Q1297.920-39.480 1302-43.800Q1306.080-48.120 1306.080-56.160"/>
  </g>
</svg>
